<svg width="800" height="800" viewBox="0 0 800 800" fill="none" xmlns="http://www.w3.org/2000/svg">
<path d="M240 366L248 348.5L246.5 347L240 343.5L229.5 340.5C230 341.5 230.2 342.9 227 340.5C223 337.5 232.5 329.5 205.5 339.5" stroke="black"/>
<path d="M248.405 348.505L240.905 366.505L226.405 359.505C223.905 358.505 216.005 356.905 204.405 358.505C199.572 359.505 190.805 363.805 194.405 373.005C194.405 374.005 196.905 376.905 206.905 380.505C210.905 381.172 220.605 383.005 227.405 385.005C235.238 386.505 252.505 393.405 258.905 409.005L278.405 452.505L309.905 379.505H332.905L288.905 479.505H265.405L236.5 417C231.5 410.5 227.405 409.005 227.405 409.005C227.405 409.005 225.5 406.688 220 405.5C214.5 404.312 213.655 403.191 201.905 400.505C194.738 399.505 178.805 394.605 172.405 383.005C168.572 373.839 166.505 353.005 188.905 343.005C200.572 339.005 228.805 334.505 248.405 348.505Z" fill="#D9D9D9" stroke="black"/>
<path d="M239.5 438C240 437.667 238.8 433.2 230 418C230 421 226.9 426.9 214.5 426.5C207 427.167 188.9 425.9 176.5 415.5C176.167 415.167 173.9 418.1 167.5 432.5C166.167 433 167.3 435.5 182.5 441.5C196 445.667 226.3 450.8 239.5 438Z" fill="#D9D9D9" stroke="black"/>
<path d="M469 452.5H324V456.5H469V452.5Z" fill="white" stroke="black"/>
<path d="M372.722 427.381C370.181 427.381 367.751 427 365.433 426.238C363.114 425.444 361.287 424.427 359.953 423.188L361.716 419.472C362.987 420.584 364.607 421.505 366.576 422.236C368.545 422.966 370.594 423.331 372.722 423.331C374.66 423.331 376.232 423.109 377.439 422.664C378.646 422.22 379.535 421.616 380.107 420.854C380.679 420.06 380.965 419.17 380.965 418.186C380.965 417.042 380.583 416.121 379.821 415.422C379.091 414.724 378.122 414.168 376.915 413.755C375.74 413.31 374.437 412.929 373.008 412.611C371.579 412.294 370.133 411.928 368.672 411.516C367.243 411.071 365.925 410.515 364.718 409.848C363.543 409.181 362.59 408.292 361.859 407.18C361.129 406.036 360.763 404.575 360.763 402.797C360.763 401.081 361.208 399.509 362.097 398.08C363.019 396.619 364.416 395.459 366.29 394.602C368.196 393.712 370.61 393.268 373.532 393.268C375.47 393.268 377.391 393.522 379.297 394.03C381.203 394.538 382.855 395.269 384.252 396.222L382.68 400.033C381.25 399.08 379.742 398.397 378.154 397.985C376.565 397.54 375.025 397.318 373.532 397.318C371.658 397.318 370.118 397.556 368.911 398.032C367.704 398.509 366.814 399.144 366.242 399.938C365.703 400.732 365.433 401.621 365.433 402.606C365.433 403.781 365.798 404.718 366.528 405.417C367.291 406.116 368.259 406.672 369.435 407.085C370.642 407.498 371.96 407.879 373.389 408.228C374.818 408.546 376.248 408.911 377.677 409.324C379.138 409.737 380.456 410.277 381.632 410.944C382.839 411.611 383.807 412.5 384.538 413.612C385.269 414.724 385.634 416.153 385.634 417.9C385.634 419.583 385.173 421.156 384.252 422.617C383.331 424.046 381.902 425.205 379.964 426.095C378.058 426.952 375.644 427.381 372.722 427.381ZM395.929 427V393.649H399.836L421.896 421.044H419.847V393.649H424.611V427H420.705L398.645 399.604H400.694V427H395.929ZM432.879 427L447.982 393.649H452.699L467.85 427H462.847L449.364 396.317H451.27L437.786 427H432.879ZM439.311 418.662L440.597 414.851H459.369L460.751 418.662H439.311ZM476.16 427V393.649H489.167C492.089 393.649 494.583 394.109 496.647 395.031C498.712 395.952 500.3 397.286 501.412 399.033C502.523 400.78 503.079 402.86 503.079 405.274C503.079 407.688 502.523 409.769 501.412 411.516C500.3 413.231 498.712 414.565 496.647 415.518C494.583 416.439 492.089 416.899 489.167 416.899H478.781L480.925 414.66V427H476.16ZM480.925 415.137L478.781 412.754H489.024C492.073 412.754 494.376 412.103 495.933 410.801C497.521 409.499 498.315 407.656 498.315 405.274C498.315 402.892 497.521 401.05 495.933 399.747C494.376 398.445 492.073 397.794 489.024 397.794H478.781L480.925 395.412V415.137ZM522.712 427L508.038 393.649H513.184L526.667 424.427H523.713L537.292 393.649H542.056L527.429 427H522.712ZM549.644 427V393.649H554.409V427H549.644ZM577.448 427.381C574.907 427.381 572.477 427 570.158 426.238C567.84 425.444 566.013 424.427 564.679 423.188L566.442 419.472C567.713 420.584 569.333 421.505 571.302 422.236C573.271 422.966 575.32 423.331 577.448 423.331C579.386 423.331 580.958 423.109 582.165 422.664C583.372 422.22 584.261 421.616 584.833 420.854C585.405 420.06 585.691 419.17 585.691 418.186C585.691 417.042 585.309 416.121 584.547 415.422C583.817 414.724 582.848 414.168 581.641 413.755C580.466 413.31 579.163 412.929 577.734 412.611C576.305 412.294 574.859 411.928 573.398 411.516C571.969 411.071 570.651 410.515 569.444 409.848C568.269 409.181 567.316 408.292 566.585 407.18C565.855 406.036 565.489 404.575 565.489 402.797C565.489 401.081 565.934 399.509 566.823 398.08C567.744 396.619 569.142 395.459 571.016 394.602C572.922 393.712 575.336 393.268 578.258 393.268C580.196 393.268 582.117 393.522 584.023 394.03C585.929 394.538 587.58 395.269 588.978 396.222L587.406 400.033C585.976 399.08 584.468 398.397 582.88 397.985C581.291 397.54 579.751 397.318 578.258 397.318C576.384 397.318 574.843 397.556 573.636 398.032C572.43 398.509 571.54 399.144 570.968 399.938C570.428 400.732 570.158 401.621 570.158 402.606C570.158 403.781 570.524 404.718 571.254 405.417C572.017 406.116 572.985 406.672 574.161 407.085C575.368 407.498 576.686 407.879 578.115 408.228C579.544 408.546 580.974 408.911 582.403 409.324C583.864 409.737 585.182 410.277 586.358 410.944C587.565 411.611 588.533 412.5 589.264 413.612C589.994 414.724 590.36 416.153 590.36 417.9C590.36 419.583 589.899 421.156 588.978 422.617C588.057 424.046 586.628 425.205 584.69 426.095C582.784 426.952 580.37 427.381 577.448 427.381ZM614.472 427.381C610.089 427.381 606.643 426.127 604.133 423.617C601.624 421.108 600.369 417.439 600.369 412.611V393.649H605.134V412.421C605.134 416.137 605.944 418.853 607.564 420.568C609.215 422.283 611.534 423.141 614.52 423.141C617.537 423.141 619.856 422.283 621.476 420.568C623.128 418.853 623.953 416.137 623.953 412.421V393.649H628.575V412.611C628.575 417.439 627.32 421.108 624.811 423.617C622.334 426.127 618.887 427.381 614.472 427.381ZM635.93 427L651.033 393.649H655.75L670.901 427H665.898L652.415 396.317H654.32L640.837 427H635.93ZM642.362 418.662L643.648 414.851H662.42L663.802 418.662H642.362ZM679.211 427V393.649H683.975V422.855H702.033V427H679.211Z" fill="white"/>
</svg>
